<svg width="2339" height="1894" xmlns="http://www.w3.org/2000/svg" xmlns:xlink="http://www.w3.org/1999/xlink" xml:space="preserve" overflow="hidden"><defs><filter id="fx0" x="-10%" y="-10%" width="120%" height="120%" filterUnits="userSpaceOnUse" primitiveUnits="userSpaceOnUse"><feComponentTransfer color-interpolation-filters="sRGB"><feFuncR type="discrete" tableValues="0.498039 0.498039"/><feFuncG type="discrete" tableValues="0.498039 0.498039"/><feFuncB type="discrete" tableValues="0.498039 0.498039"/><feFuncA type="linear" slope="1" intercept="0"/></feComponentTransfer><feGaussianBlur stdDeviation="2.8453 2.8453"/></filter></defs><g transform="translate(-1033 -405)"><rect x="1035.5" y="407.5" width="561" height="533" stroke="#172C51" stroke-width="4.58333" stroke-miterlimit="8" fill="#4472C4"/><rect x="1040.5" y="1763.5" width="560" height="533" stroke="#172C51" stroke-width="4.58333" stroke-miterlimit="8" fill="#4472C4"/><rect x="1035.5" y="1085.5" width="561" height="533" stroke="#172C51" stroke-width="4.58333" stroke-miterlimit="8" fill="#4472C4"/><rect x="2804.5" y="407.5" width="561" height="533" stroke="#172C51" stroke-width="4.58333" stroke-miterlimit="8" fill="#4472C4"/><rect x="2809.5" y="1763.5" width="560" height="533" stroke="#172C51" stroke-width="4.58333" stroke-miterlimit="8" fill="#4472C4"/><rect x="2804.5" y="1085.5" width="561" height="533" stroke="#172C51" stroke-width="4.58333" stroke-miterlimit="8" fill="#4472C4"/><rect x="1920.5" y="1496.5" width="560" height="534" stroke="#172C51" stroke-width="4.58333" stroke-miterlimit="8" fill="#4472C4"/><rect x="1920.5" y="674.5" width="560" height="533" stroke="#172C51" stroke-width="4.58333" stroke-miterlimit="8" fill="#4472C4"/><path d="M1596.5 674.5 1920.47 941.212" stroke="#000000" stroke-width="20.625" stroke-linecap="square" stroke-miterlimit="8" stroke-dasharray="61.875 20.625" fill="none" fill-rule="evenodd"/><path d="M0 0 323.972 411.37" stroke="#000000" stroke-width="20.625" stroke-linecap="square" stroke-miterlimit="8" stroke-dasharray="61.875 20.625" fill="none" fill-rule="evenodd" transform="matrix(-1 0 0 1 1920.47 940.5)"/><path d="M1596.5 674.5 1920.47 1763.95" stroke="#000000" stroke-width="20.625" stroke-linecap="square" stroke-miterlimit="8" stroke-dasharray="61.875 20.625" fill="none" fill-rule="evenodd"/><path d="M1596.5 1352.5 1920.47 1763.87" stroke="#000000" stroke-width="20.625" stroke-linecap="square" stroke-miterlimit="8" stroke-dasharray="61.875 20.625" fill="none" fill-rule="evenodd"/><path d="M0 0 328.493 300.24" stroke="#000000" stroke-width="20.625" stroke-linecap="square" stroke-miterlimit="8" stroke-dasharray="61.875 20.625" fill="none" fill-rule="evenodd" transform="matrix(1 0 0 -1 1600.5 2029.74)"/><path d="M0 0 319.452 1089.45" stroke="#000000" stroke-width="20.625" stroke-linecap="square" stroke-miterlimit="8" stroke-dasharray="61.875 20.625" fill="none" fill-rule="evenodd" transform="matrix(1 0 0 -1 1600.5 2029.95)"/><path d="M0 0 0.000360892 289.314" stroke="#000000" stroke-width="20.625" stroke-linecap="square" stroke-miterlimit="8" stroke-dasharray="61.875 20.625" fill="none" fill-rule="evenodd" transform="matrix(1 0 0 -1 2200.5 1496.81)"/><path d="M0 0 323.972 266.712" stroke="#000000" stroke-width="20.625" stroke-linecap="square" stroke-miterlimit="8" stroke-dasharray="61.875 20.625" fill="none" fill-rule="evenodd" transform="matrix(1 0 0 -1 2480.5 941.212)"/><path d="M2480.5 940.5 2804.47 1351.87" stroke="#000000" stroke-width="20.625" stroke-linecap="square" stroke-miterlimit="8" stroke-dasharray="61.875 20.625" fill="none" fill-rule="evenodd"/><path d="M2480.5 1763.5 2808.99 2030.21" stroke="#000000" stroke-width="20.625" stroke-linecap="square" stroke-miterlimit="8" stroke-dasharray="61.875 20.625" fill="none" fill-rule="evenodd"/><path d="M2480.5 940.5 2808.99 2029.95" stroke="#000000" stroke-width="20.625" stroke-linecap="square" stroke-miterlimit="8" stroke-dasharray="61.875 20.625" fill="none" fill-rule="evenodd"/><path d="M0 0 323.972 411.37" stroke="#000000" stroke-width="20.625" stroke-linecap="square" stroke-miterlimit="8" stroke-dasharray="61.875 20.625" fill="none" fill-rule="evenodd" transform="matrix(-1 0 0 1 2804.47 1352.5)"/><path d="M0 0 333.013 1130.14" stroke="#000000" stroke-width="20.625" stroke-linecap="square" stroke-miterlimit="8" stroke-dasharray="61.875 20.625" fill="none" fill-rule="evenodd" transform="matrix(1 0 0 -1 2471.5 1804.64)"/><g filter="url(#fx0)" transform="translate(1413 1056)"><g><path d="M926.037 111.935 926.037 307.427 978.584 307.427C997.287 307.427 1012.95 304.904 1025.56 299.857 1038.18 294.81 1048.5 287.759 1056.51 278.705 1064.53 269.65 1070.62 258.814 1074.77 246.197 1078.93 233.58 1081.01 219.849 1081.01 205.005 1081.01 184.818 1077.44 168.193 1070.32 155.13 1063.19 142.068 1054.44 132.419 1044.04 126.185 1033.65 119.951 1022.74 116.017 1011.31 114.384 999.885 112.752 988.084 111.935 975.912 111.935ZM848.553 21.5367 984.373 21.5367C998.029 21.5367 1011.02 22.0562 1023.34 23.0953 1035.66 24.1343 1050.43 26.3609 1067.65 29.775 1084.87 33.189 1102.31 39.4976 1119.97 48.7007 1137.63 57.9039 1152.7 69.5562 1165.17 83.6578 1177.64 97.7593 1187.14 114.236 1193.67 133.087 1200.2 151.939 1203.47 173.091 1203.47 196.544 1203.47 228.904 1198.42 257.552 1188.33 282.49 1178.23 307.427 1163.54 328.431 1144.24 345.501 1124.94 362.572 1101.27 375.56 1073.21 384.466 1045.16 393.373 1012.13 397.826 974.131 397.826L926.037 397.826 926.037 581.74C926.037 584.708 925.072 587.38 923.143 589.755 921.213 592.13 918.022 594.06 913.568 595.544 909.115 597.029 903.178 598.216 895.756 599.107 888.334 599.998 878.834 600.443 867.256 600.443 855.975 600.443 846.549 599.998 838.979 599.107 831.408 598.216 825.397 597.029 820.943 595.544 816.49 594.06 813.373 592.13 811.592 589.755 809.811 587.38 808.92 584.708 808.92 581.74L808.92 63.3961C808.92 49.4429 812.557 38.9781 819.83 32.0015 827.104 25.025 836.678 21.5367 848.553 21.5367ZM56.006 21.5367 132.6 21.5367C146.256 21.5367 157.983 22.65 167.779 24.8765 177.576 27.1031 186.037 30.814 193.162 36.0093 200.287 41.2047 206.225 48.0328 210.975 56.4937 215.725 64.9547 219.881 75.4195 223.443 87.8882L348.131 431.224 349.912 431.224 479.053 88.7788C482.912 76.3101 487.143 65.7711 491.744 57.1617 496.346 48.5523 501.69 41.5757 507.775 36.232 513.861 30.8882 521.061 27.1031 529.373 24.8765 537.686 22.65 547.334 21.5367 558.318 21.5367L637.139 21.5367C645.154 21.5367 652.057 22.5757 657.846 24.6539 663.635 26.732 668.385 29.775 672.096 33.7828 675.807 37.7906 678.627 42.689 680.557 48.4781 682.486 54.2672 683.451 60.8726 683.451 68.2945L683.451 581.74C683.451 584.708 682.635 587.38 681.002 589.755 679.369 592.13 676.401 594.06 672.096 595.544 667.791 597.029 662.076 598.216 654.951 599.107 647.826 599.998 638.772 600.443 627.787 600.443 617.1 600.443 608.193 599.998 601.068 599.107 593.943 598.216 588.303 597.029 584.147 595.544 579.99 594.06 577.022 592.13 575.24 589.755 573.459 587.38 572.568 584.708 572.568 581.74L572.568 112.826 571.678 112.826 404.686 581.294C403.498 585.154 401.568 588.345 398.897 590.869 396.225 593.392 392.588 595.396 387.986 596.88 383.385 598.365 377.522 599.33 370.397 599.775 363.272 600.22 354.662 600.443 344.568 600.443 334.475 600.443 325.865 600.072 318.74 599.33 311.615 598.587 305.752 597.4 301.151 595.767 296.549 594.134 292.912 592.13 290.24 589.755 287.568 587.38 285.787 584.56 284.897 581.294L123.693 112.826 122.803 112.826 122.803 581.74C122.803 584.708 121.986 587.38 120.354 589.755 118.721 592.13 115.678 594.06 111.225 595.544 106.772 597.029 101.057 598.216 94.0802 599.107 87.1036 599.998 78.1232 600.443 67.1388 600.443 56.4513 600.443 47.5451 599.998 40.4201 599.107 33.2951 598.216 27.5802 597.029 23.2755 595.544 18.9708 594.06 16.0021 592.13 14.3693 589.755 12.7365 587.38 11.9201 584.708 11.9201 581.74L11.9201 68.2945C11.9201 53.1539 15.9279 41.5757 23.9435 33.5601 31.9591 25.5445 42.6466 21.5367 56.006 21.5367ZM1462.25 11.2945C1475.9 11.2945 1489.56 12.3336 1503.22 14.4117 1516.87 16.4898 1529.64 19.3101 1541.51 22.8726 1553.39 26.4351 1563.93 30.4429 1573.13 34.8961 1582.33 39.3492 1588.42 43.0601 1591.39 46.0289 1594.36 48.9976 1596.36 51.5211 1597.4 53.5992 1598.44 55.6773 1599.33 58.4234 1600.07 61.8375 1600.81 65.2515 1601.33 69.5562 1601.63 74.7515 1601.93 79.9468 1602.08 86.4038 1602.08 94.1226 1602.08 102.732 1601.85 110.005 1601.41 115.943 1600.96 121.88 1600.22 126.779 1599.18 130.638 1598.14 134.498 1596.66 137.318 1594.73 139.099 1592.8 140.88 1590.2 141.771 1586.94 141.771 1583.67 141.771 1578.47 139.693 1571.35 135.537 1564.22 131.38 1555.47 126.853 1545.08 121.955 1534.69 117.056 1522.66 112.603 1509.01 108.595 1495.35 104.587 1480.36 102.584 1464.03 102.584 1451.26 102.584 1440.13 104.142 1430.63 107.259 1421.13 110.376 1413.19 114.681 1406.81 120.173 1400.42 125.666 1395.67 132.271 1392.56 139.99 1389.44 147.709 1387.88 155.873 1387.88 164.482 1387.88 177.248 1391.37 188.306 1398.35 197.658 1405.32 207.009 1414.67 215.322 1426.4 222.595 1438.13 229.869 1451.41 236.697 1466.26 243.08 1481.1 249.462 1496.24 256.216 1511.68 263.341 1527.12 270.466 1542.26 278.556 1557.1 287.611 1571.94 296.666 1585.15 307.501 1596.73 320.119 1608.31 332.736 1617.66 347.58 1624.79 364.65 1631.91 381.72 1635.47 401.833 1635.47 424.99 1635.47 455.271 1629.83 481.841 1618.55 504.701 1607.27 527.56 1591.98 546.634 1572.69 561.923 1553.39 577.212 1530.83 588.716 1505 596.435 1479.17 604.154 1451.56 608.013 1422.17 608.013 1402.28 608.013 1383.8 606.38 1366.73 603.115 1349.66 599.849 1334.59 595.916 1321.53 591.314 1308.47 586.712 1297.56 581.888 1288.8 576.841 1280.04 571.794 1273.73 567.341 1269.87 563.482 1266.01 559.623 1263.27 554.056 1261.63 546.783 1260 539.509 1259.19 529.044 1259.19 515.388 1259.19 506.185 1259.48 498.466 1260.08 492.232 1260.67 485.998 1261.63 480.951 1262.97 477.091 1264.31 473.232 1266.09 470.486 1268.31 468.853 1270.54 467.22 1273.14 466.404 1276.11 466.404 1280.26 466.404 1286.13 468.853 1293.7 473.751 1301.27 478.65 1310.99 484.068 1322.87 490.005 1334.74 495.943 1348.92 501.361 1365.39 506.259 1381.87 511.158 1400.94 513.607 1422.62 513.607 1436.87 513.607 1449.63 511.9 1460.91 508.486 1472.19 505.072 1481.77 500.248 1489.63 494.013 1497.5 487.779 1503.51 480.06 1507.67 470.857 1511.83 461.654 1513.9 451.412 1513.9 440.13 1513.9 427.068 1510.34 415.861 1503.22 406.509 1496.09 397.158 1486.81 388.845 1475.38 381.572 1463.96 374.298 1450.97 367.47 1436.42 361.087 1421.87 354.705 1406.88 347.951 1391.44 340.826 1376.01 333.701 1361.01 325.611 1346.47 316.556 1331.92 307.501 1318.93 296.666 1307.5 284.048 1296.07 271.431 1286.79 256.513 1279.67 239.294 1272.54 222.076 1268.98 201.443 1268.98 177.396 1268.98 149.787 1274.1 125.517 1284.35 104.587 1294.59 83.6578 1308.39 66.2906 1325.76 52.4859 1343.13 38.6812 1363.61 28.3648 1387.21 21.5367 1410.81 14.7086 1435.83 11.2945 1462.25 11.2945Z" stroke="#FFFFFF" stroke-width="3" stroke-linejoin="round" stroke-miterlimit="10" fill-rule="evenodd"/></g></g><path d="M2320.4 1149.29 2320.4 1344.79 2372.94 1344.79C2391.65 1344.79 2407.31 1342.26 2419.92 1337.22 2432.54 1332.17 2442.86 1325.12 2450.87 1316.06 2458.89 1307.01 2464.97 1296.17 2469.13 1283.55 2473.29 1270.94 2475.36 1257.21 2475.36 1242.36 2475.36 1222.18 2471.8 1205.55 2464.68 1192.49 2457.55 1179.43 2448.79 1169.78 2438.4 1163.54 2428.01 1157.31 2417.1 1153.38 2405.67 1151.74 2394.24 1150.11 2382.44 1149.29 2370.27 1149.29ZM2242.91 1058.89 2378.73 1058.89C2392.39 1058.89 2405.38 1059.41 2417.7 1060.45 2430.02 1061.49 2444.79 1063.72 2462 1067.13 2479.22 1070.55 2496.66 1076.86 2514.33 1086.06 2531.99 1095.26 2547.06 1106.91 2559.53 1121.02 2572 1135.12 2581.5 1151.59 2588.03 1170.45 2594.56 1189.3 2597.82 1210.45 2597.82 1233.9 2597.82 1266.26 2592.78 1294.91 2582.68 1319.85 2572.59 1344.79 2557.9 1365.79 2538.6 1382.86 2519.3 1399.93 2495.63 1412.92 2467.57 1421.82 2439.52 1430.73 2406.49 1435.18 2368.49 1435.18L2320.4 1435.18 2320.4 1619.1C2320.4 1622.07 2319.43 1624.74 2317.5 1627.11 2315.57 1629.49 2312.38 1631.42 2307.93 1632.9 2303.47 1634.39 2297.54 1635.57 2290.11 1636.47 2282.69 1637.36 2273.19 1637.8 2261.61 1637.8 2250.33 1637.8 2240.91 1637.36 2233.34 1636.47 2225.77 1635.57 2219.75 1634.39 2215.3 1632.9 2210.85 1631.42 2207.73 1629.49 2205.95 1627.11 2204.17 1624.74 2203.28 1622.07 2203.28 1619.1L2203.28 1100.75C2203.28 1086.8 2206.92 1076.34 2214.19 1069.36 2221.46 1062.38 2231.04 1058.89 2242.91 1058.89ZM1450.36 1058.89 1526.96 1058.89C1540.61 1058.89 1552.34 1060.01 1562.14 1062.23 1571.93 1064.46 1580.4 1068.17 1587.52 1073.37 1594.65 1078.56 1600.58 1085.39 1605.33 1093.85 1610.08 1102.31 1614.24 1112.78 1617.8 1125.25L1742.49 1468.58 1744.27 1468.58 1873.41 1126.14C1877.27 1113.67 1881.5 1103.13 1886.1 1094.52 1890.7 1085.91 1896.05 1078.93 1902.13 1073.59 1908.22 1068.25 1915.42 1064.46 1923.73 1062.23 1932.04 1060.01 1941.69 1058.89 1952.68 1058.89L2031.5 1058.89C2039.51 1058.89 2046.41 1059.93 2052.2 1062.01 2057.99 1064.09 2062.74 1067.13 2066.45 1071.14 2070.16 1075.15 2072.99 1080.05 2074.91 1085.84 2076.84 1091.63 2077.81 1098.23 2077.81 1105.65L2077.81 1619.1C2077.81 1622.07 2076.99 1624.74 2075.36 1627.11 2073.73 1629.49 2070.76 1631.42 2066.45 1632.9 2062.15 1634.39 2056.43 1635.57 2049.31 1636.47 2042.18 1637.36 2033.13 1637.8 2022.15 1637.8 2011.46 1637.8 2002.55 1637.36 1995.43 1636.47 1988.3 1635.57 1982.66 1634.39 1978.5 1632.9 1974.35 1631.42 1971.38 1629.49 1969.6 1627.11 1967.82 1624.74 1966.93 1622.07 1966.93 1619.1L1966.93 1150.18 1966.04 1150.18 1799.04 1618.65C1797.86 1622.51 1795.93 1625.7 1793.25 1628.23 1790.58 1630.75 1786.95 1632.75 1782.34 1634.24 1777.74 1635.72 1771.88 1636.69 1764.75 1637.13 1757.63 1637.58 1749.02 1637.8 1738.93 1637.8 1728.83 1637.8 1720.22 1637.43 1713.1 1636.69 1705.97 1635.95 1700.11 1634.76 1695.51 1633.13 1690.91 1631.49 1687.27 1629.49 1684.6 1627.11 1681.93 1624.74 1680.15 1621.92 1679.25 1618.65L1518.05 1150.18 1517.16 1150.18 1517.16 1619.1C1517.16 1622.07 1516.34 1624.74 1514.71 1627.11 1513.08 1629.49 1510.04 1631.42 1505.58 1632.9 1501.13 1634.39 1495.41 1635.57 1488.44 1636.47 1481.46 1637.36 1472.48 1637.8 1461.5 1637.8 1450.81 1637.8 1441.9 1637.36 1434.78 1636.47 1427.65 1635.57 1421.94 1634.39 1417.63 1632.9 1413.33 1631.42 1410.36 1629.49 1408.73 1627.11 1407.09 1624.74 1406.28 1622.07 1406.28 1619.1L1406.28 1105.65C1406.28 1090.51 1410.29 1078.93 1418.3 1070.92 1426.32 1062.9 1437 1058.89 1450.36 1058.89ZM2856.61 1048.65C2870.26 1048.65 2883.92 1049.69 2897.57 1051.77 2911.23 1053.85 2924 1056.67 2935.87 1060.23 2947.75 1063.79 2958.29 1067.8 2967.49 1072.25 2976.69 1076.71 2982.78 1080.42 2985.75 1083.39 2988.72 1086.36 2990.72 1088.88 2991.76 1090.96 2992.8 1093.04 2993.69 1095.78 2994.43 1099.2 2995.17 1102.61 2995.69 1106.91 2995.99 1112.11 2996.29 1117.3 2996.43 1123.76 2996.43 1131.48 2996.43 1140.09 2996.21 1147.36 2995.77 1153.3 2995.32 1159.24 2994.58 1164.14 2993.54 1168 2992.5 1171.86 2991.02 1174.68 2989.09 1176.46 2987.16 1178.24 2984.56 1179.13 2981.29 1179.13 2978.03 1179.13 2972.83 1177.05 2965.71 1172.89 2958.58 1168.74 2949.82 1164.21 2939.43 1159.31 2929.04 1154.41 2917.02 1149.96 2903.36 1145.95 2889.71 1141.95 2874.72 1139.94 2858.39 1139.94 2845.62 1139.94 2834.49 1141.5 2824.99 1144.62 2815.49 1147.73 2807.55 1152.04 2801.16 1157.53 2794.78 1163.02 2790.03 1169.63 2786.91 1177.35 2783.8 1185.07 2782.24 1193.23 2782.24 1201.84 2782.24 1214.61 2785.73 1225.66 2792.7 1235.02 2799.68 1244.37 2809.03 1252.68 2820.76 1259.95 2832.49 1267.23 2845.77 1274.05 2860.61 1280.44 2875.46 1286.82 2890.6 1293.57 2906.04 1300.7 2921.47 1307.82 2936.61 1315.91 2951.46 1324.97 2966.3 1334.02 2979.51 1344.86 2991.09 1357.48 3002.67 1370.09 3012.02 1384.94 3019.15 1402.01 3026.27 1419.08 3029.83 1439.19 3029.83 1462.35 3029.83 1492.63 3024.19 1519.2 3012.91 1542.06 3001.63 1564.92 2986.34 1583.99 2967.04 1599.28 2947.75 1614.57 2925.18 1626.07 2899.36 1633.79 2873.53 1641.51 2845.92 1645.37 2816.53 1645.37 2796.64 1645.37 2778.16 1643.74 2761.09 1640.47 2744.02 1637.21 2728.95 1633.27 2715.89 1628.67 2702.82 1624.07 2691.91 1619.25 2683.16 1614.2 2674.4 1609.15 2668.09 1604.7 2664.23 1600.84 2660.37 1596.98 2657.63 1591.41 2655.99 1584.14 2654.36 1576.87 2653.54 1566.4 2653.54 1552.75 2653.54 1543.54 2653.84 1535.82 2654.43 1529.59 2655.03 1523.36 2655.99 1518.31 2657.33 1514.45 2658.66 1510.59 2660.45 1507.84 2662.67 1506.21 2664.9 1504.58 2667.5 1503.76 2670.47 1503.76 2674.62 1503.76 2680.49 1506.21 2688.06 1511.11 2695.63 1516.01 2705.35 1521.43 2717.22 1527.36 2729.1 1533.3 2743.27 1538.72 2759.75 1543.62 2776.23 1548.52 2795.3 1550.97 2816.97 1550.97 2831.22 1550.97 2843.99 1549.26 2855.27 1545.84 2866.55 1542.43 2876.13 1537.61 2883.99 1531.37 2891.86 1525.14 2897.87 1517.42 2902.03 1508.22 2906.18 1499.01 2908.26 1488.77 2908.26 1477.49 2908.26 1464.43 2904.7 1453.22 2897.57 1443.87 2890.45 1434.52 2881.17 1426.2 2869.74 1418.93 2858.31 1411.66 2845.32 1404.83 2830.78 1398.45 2816.23 1392.06 2801.24 1385.31 2785.8 1378.18 2770.36 1371.06 2755.37 1362.97 2740.82 1353.91 2726.28 1344.86 2713.29 1334.02 2701.86 1321.41 2690.43 1308.79 2681.15 1293.87 2674.03 1276.65 2666.9 1259.43 2663.34 1238.8 2663.34 1214.75 2663.34 1187.14 2668.46 1162.88 2678.7 1141.95 2688.95 1121.02 2702.75 1103.65 2720.12 1089.84 2737.49 1076.04 2757.97 1065.72 2781.57 1058.89 2805.17 1052.07 2830.18 1048.65 2856.61 1048.65Z" stroke="#FFFFFF" stroke-width="3" stroke-linejoin="round" stroke-miterlimit="10" fill-rule="evenodd"/><text fill="#000000" fill-opacity="0" font-family="Arial,Arial_MSFontService,sans-serif" font-size="596.719" x="1406.28" y="1570.78">MPS</text></g></svg>