<svg width="5826" height="4064" xmlns="http://www.w3.org/2000/svg" xmlns:xlink="http://www.w3.org/1999/xlink" xml:space="preserve" overflow="hidden"><defs><filter id="fx0" x="-10%" y="-10%" width="120%" height="120%" filterUnits="userSpaceOnUse" primitiveUnits="userSpaceOnUse"><feComponentTransfer color-interpolation-filters="sRGB"><feFuncR type="discrete" tableValues="0 0"/><feFuncG type="discrete" tableValues="0 0"/><feFuncB type="discrete" tableValues="0 0"/><feFuncA type="linear" slope="0.4" intercept="0"/></feComponentTransfer><feGaussianBlur stdDeviation="7.28121 7.28121"/></filter><clipPath id="clip1"><rect x="-698" y="-529" width="5826" height="4064"/></clipPath><clipPath id="clip2"><rect x="640.5" y="557.5" width="1679" height="675"/></clipPath></defs><g clip-path="url(#clip1)" transform="translate(698 529)"><path d="M1393.5 411.5 1884.3 838.673" stroke="#000000" stroke-width="20.625" stroke-linecap="square" stroke-miterlimit="8" stroke-dasharray="61.875 20.625" fill="none" fill-rule="evenodd"/><path d="M0 0 490.802 397.826" stroke="#000000" stroke-width="20.625" stroke-linecap="square" stroke-miterlimit="8" stroke-dasharray="61.875 20.625" fill="none" fill-rule="evenodd" transform="matrix(1 0 0 -1 1393.5 1236.33)"/><path d="M0 0 490.802 1222.83" stroke="#000000" stroke-width="20.625" stroke-linecap="square" stroke-miterlimit="8" stroke-dasharray="61.875 20.625" fill="none" fill-rule="evenodd" transform="matrix(1 0 0 -1 1393.5 2061.33)"/><path d="M1393.5 1236.5 1884.3 1713.4" stroke="#000000" stroke-width="20.625" stroke-linecap="square" stroke-miterlimit="8" stroke-dasharray="61.875 20.625" fill="none" fill-rule="evenodd"/><path d="M1393.5 411.5 1884.3 1713.4" stroke="#000000" stroke-width="20.625" stroke-linecap="square" stroke-miterlimit="8" stroke-dasharray="61.875 20.625" fill="none" fill-rule="evenodd"/><path d="M2200.5 1130.5 2200.5 1422.08" stroke="#000000" stroke-width="20.625" stroke-linecap="square" stroke-miterlimit="8" stroke-dasharray="61.875 20.625" fill="none" fill-rule="evenodd"/><path d="M0 0 490.803 425.863" stroke="#000000" stroke-width="20.625" stroke-linecap="square" stroke-miterlimit="8" stroke-dasharray="61.875 20.625" fill="none" fill-rule="evenodd" transform="matrix(-1 0 0 1 3007.3 413.5)"/><path d="M0 0 490.803 1300.59" stroke="#000000" stroke-width="20.625" stroke-linecap="square" stroke-miterlimit="8" stroke-dasharray="61.875 20.625" fill="none" fill-rule="evenodd" transform="matrix(-1 0 0 1 3007.3 413.5)"/><path d="M3007.3 1237.64 2516.5 838.5" stroke="#000000" stroke-width="20.625" stroke-linecap="square" stroke-miterlimit="8" stroke-dasharray="61.875 20.625" fill="none" fill-rule="evenodd"/><path d="M3007.3 2062.64 2516.5 838.5" stroke="#000000" stroke-width="20.625" stroke-linecap="square" stroke-miterlimit="8" stroke-dasharray="61.875 20.625" fill="none" fill-rule="evenodd"/><path d="M0 0 490.803 475.59" stroke="#000000" stroke-width="20.625" stroke-linecap="square" stroke-miterlimit="8" stroke-dasharray="61.875 20.625" fill="none" fill-rule="evenodd" transform="matrix(1 0 0 -1 2516.5 1714.09)"/><path d="M2516.5 1713.5 3007.3 2062.91" stroke="#000000" stroke-width="20.625" stroke-linecap="square" stroke-miterlimit="8" stroke-dasharray="61.875 20.625" fill="none" fill-rule="evenodd"/><path d="M762.5 120.5C820.46 122.783 912.768 128.425 966.523 120.5 1020.28 112.576 1093.93 112.099 1164.24 120.5 1234.54 128.901 1292.52 127.818 1393.5 120.5 1389.97 209.232 1385.46 255.147 1393.5 309.004 1401.54 362.86 1384.41 454.145 1393.5 503.337 1402.59 552.528 1387.34 620.706 1393.5 703.5 1345.67 712.349 1252.28 694.223 1189.48 703.5 1126.67 712.777 1080.78 697.492 998.073 703.5 915.366 709.509 879.633 694.08 762.5 703.5 767.973 614.453 771.653 546.865 762.5 503.337 753.347 459.808 763.387 369.171 762.5 326.493 761.612 283.815 756.951 212.677 762.5 120.5Z" fill="#4472C4" fill-rule="evenodd"/><path d="M762.5 120.5C827.95 115.306 877.14 118.401 960.213 120.5 1043.29 122.599 1113.23 110.869 1183.17 120.5 1253.11 130.131 1326.24 120.801 1393.5 120.5 1396.47 175.361 1391.67 232.948 1393.5 320.664 1395.33 408.379 1389.55 448.476 1393.5 503.337 1397.45 558.197 1398.65 634.785 1393.5 703.5 1316.64 713.283 1245.68 698.556 1189.48 703.5 1133.28 708.444 1023.82 702.13 979.143 703.5 934.468 704.87 837.17 697.525 762.5 703.5 762.568 654.602 753.808 565.765 762.5 526.657 771.191 487.548 762.367 418.629 762.5 349.814 762.633 280.998 773.172 202.67 762.5 120.5Z" stroke="#000000" stroke-width="20.625" stroke-miterlimit="8" fill="none" fill-rule="evenodd"/><path d="M762.5 945.5C809.149 950.013 886.256 938.632 985.453 945.5 1084.65 952.368 1120.57 944.282 1202.1 945.5 1283.62 946.718 1348.67 939.023 1393.5 945.5 1388.78 1027.41 1389.05 1068.28 1393.5 1145.66 1397.95 1223.04 1392.68 1251.73 1393.5 1340 1394.32 1428.26 1401.75 1437.15 1393.5 1528.5 1294.92 1527.17 1262.41 1537.2 1195.79 1528.5 1129.17 1519.8 1074.09 1531.88 972.833 1528.5 871.579 1525.12 830.148 1522.29 762.5 1528.5 758.883 1461.26 771.615 1399.4 762.5 1322.51 753.385 1245.62 769.813 1177.99 762.5 1116.51 755.187 1055.03 765.039 993.053 762.5 945.5Z" fill="#4472C4" fill-rule="evenodd"/><path d="M762.5 945.5C845.277 950.924 934.772 936.971 979.143 945.5 1023.52 954.029 1115.55 938.512 1183.17 945.5 1250.78 952.488 1315.01 942.395 1393.5 945.5 1390.95 1031.95 1397.16 1104.21 1393.5 1151.49 1389.84 1198.78 1386.68 1297.11 1393.5 1340 1400.32 1382.88 1398.59 1435.18 1393.5 1528.5 1297.29 1533.26 1276.68 1521.12 1170.55 1528.5 1064.41 1535.88 1049.59 1526.78 966.523 1528.5 883.454 1530.22 813.217 1531.2 762.5 1528.5 766.287 1470.03 762.884 1431.31 762.5 1351.66 762.116 1272 766.278 1262.23 762.5 1174.81 758.722 1087.39 768.716 1025.78 762.5 945.5Z" stroke="#000000" stroke-width="20.625" stroke-miterlimit="8" fill="none" fill-rule="evenodd"/><path d="M762.5 1770.5C859.402 1780.87 893.985 1781.02 985.453 1770.5 1076.92 1759.98 1101.02 1764.82 1189.48 1770.5 1277.93 1776.18 1320.5 1763.54 1393.5 1770.5 1390.11 1869.79 1387.33 1914.53 1393.5 1976.49 1399.67 2038.45 1403.1 2086.63 1393.5 2182.49 1383.9 2278.35 1385.81 2285.39 1393.5 2353.5 1286.86 2356.86 1250.51 2343.28 1176.86 2353.5 1103.2 2363.72 1022.47 2353.88 960.213 2353.5 897.952 2353.12 834.344 2363.17 762.5 2353.5 755.312 2304.22 761.77 2244.54 762.5 2165 763.23 2085.45 757.025 2069.52 762.5 1982.32 767.974 1895.13 760.583 1816.86 762.5 1770.5Z" fill="#4472C4" fill-rule="evenodd"/><path d="M762.5 1770.5C849.274 1773.03 889.871 1762.33 985.453 1770.5 1081.04 1778.67 1128.4 1774.43 1195.79 1770.5 1263.17 1766.57 1330.55 1769.11 1393.5 1770.5 1390.26 1838.61 1385.91 1919.75 1393.5 1959 1401.09 1998.26 1397.13 2094.07 1393.5 2159.17 1389.87 2224.26 1394.06 2290.58 1393.5 2353.5 1312.96 2347.84 1240.61 2350.49 1189.48 2353.5 1138.34 2356.51 1083.86 2363.11 991.763 2353.5 899.667 2343.89 857.28 2364.97 762.5 2353.5 752.825 2279.8 761.579 2201.44 762.5 2147.51 763.421 2093.58 754.83 2023.84 762.5 1953.17 770.169 1882.5 762.802 1812.86 762.5 1770.5Z" stroke="#000000" stroke-width="20.625" stroke-miterlimit="8" fill="none" fill-rule="evenodd"/><path d="M3007.5 121.5C3053.13 116.827 3152.96 120.214 3224.14 121.5 3295.33 122.786 3352.9 118.107 3415.55 121.5 3478.2 124.893 3569.73 112.189 3638.5 121.5 3633.65 198.209 3632.75 266.139 3638.5 310.003 3644.25 353.868 3639.71 451.97 3638.5 515.996 3637.29 580.023 3640.83 633.953 3638.5 704.5 3561.07 703.803 3519.56 707.731 3440.79 704.5 3362.01 701.269 3329.47 707.252 3243.07 704.5 3156.67 701.748 3118.7 696.66 3007.5 704.5 2998.36 604.744 3013.67 587.76 3007.5 504.336 3001.33 420.913 3011.71 372.77 3007.5 298.343 3003.29 223.916 3004.7 207.239 3007.5 121.5Z" fill="#4472C4" fill-rule="evenodd"/><path d="M3007.5 121.5C3087.96 116.3 3128.72 128.397 3217.83 121.5 3306.94 114.602 3378.72 111.794 3440.79 121.5 3502.85 131.206 3556.26 121.518 3638.5 121.5 3635.65 164.814 3638.35 222.446 3638.5 321.663 3638.65 420.881 3640.56 467.43 3638.5 504.336 3636.44 541.243 3636.42 617.005 3638.5 704.5 3589.61 702.516 3490.88 701.653 3447.1 704.5 3403.32 707.347 3301.33 697.034 3236.76 704.5 3172.2 711.966 3091.62 696.544 3007.5 704.5 3012.95 619.786 2997.71 600.974 3007.5 504.336 3017.29 407.699 3005.34 411.62 3007.5 327.493 3009.66 243.365 3013.44 179.341 3007.5 121.5Z" stroke="#000000" stroke-width="20.625" stroke-miterlimit="8" fill="none" fill-rule="evenodd"/><path d="M3007.5 946.5C3056.15 954.959 3117.11 943.289 3198.9 946.5 3280.7 949.711 3337.02 944.389 3415.55 946.5 3494.07 948.61 3561.8 936.357 3638.5 946.5 3631.5 985.95 3635.31 1075.59 3638.5 1129.17 3641.69 1182.76 3632.48 1235.51 3638.5 1335.17 3644.52 1434.82 3633.2 1434.27 3638.5 1529.5 3540.04 1535.76 3498.21 1526.53 3421.86 1529.5 3345.5 1532.47 3312.26 1523.61 3230.45 1529.5 3148.64 1535.39 3116.65 1527.52 3007.5 1529.5 3016.27 1463.64 3007.58 1376.08 3007.5 1335.17 3007.42 1294.25 3012.92 1204.22 3007.5 1158.32 3002.08 1112.42 3017.91 1029.71 3007.5 946.5Z" fill="#4472C4" fill-rule="evenodd"/><path d="M3007.5 946.5C3096.82 947.54 3146.98 946.387 3211.52 946.5 3276.06 946.612 3346.46 949.549 3402.93 946.5 3459.4 943.451 3590.92 949.799 3638.5 946.5 3633.78 1026.76 3637.85 1074.56 3638.5 1123.34 3639.15 1172.13 3629.74 1220.45 3638.5 1311.85 3647.26 1403.25 3631.67 1443.61 3638.5 1529.5 3587.11 1520.91 3541.27 1527.75 3447.1 1529.5 3352.92 1531.25 3290.23 1527.55 3243.07 1529.5 3195.92 1531.45 3078.97 1532.69 3007.5 1529.5 3006.13 1444.77 3001.64 1395.79 3007.5 1352.66 3013.36 1309.52 3014.53 1240.07 3007.5 1146.66 3000.47 1053.26 3010.25 1037.52 3007.5 946.5Z" stroke="#000000" stroke-width="20.625" stroke-miterlimit="8" fill="none" fill-rule="evenodd"/><path d="M3007.5 1771.5C3087.47 1771.04 3117.99 1775.82 3205.21 1771.5 3292.44 1767.18 3337.44 1770.94 3409.24 1771.5 3481.03 1772.06 3536.14 1761.23 3638.5 1771.5 3630.55 1823.85 3640.1 1886.38 3638.5 1965.83 3636.9 2045.29 3642.81 2086.38 3638.5 2166 3634.19 2245.61 3633.51 2271.16 3638.5 2354.5 3540.99 2362.23 3492.25 2357.89 3440.79 2354.5 3389.32 2351.11 3336.58 2351.42 3243.07 2354.5 3149.57 2357.58 3118.02 2349.1 3007.5 2354.5 2998.7 2306.28 3012.2 2233.36 3007.5 2171.83 3002.8 2110.29 3003.45 2032 3007.5 1989.15 3011.55 1946.31 3000.98 1828.91 3007.5 1771.5Z" fill="#4472C4" fill-rule="evenodd"/><path d="M3007.5 1771.5C3061.66 1764.14 3176.42 1777.38 3230.45 1771.5 3284.49 1765.62 3384.23 1767.19 3434.48 1771.5 3484.72 1775.81 3587.89 1762.24 3638.5 1771.5 3638.86 1845.06 3638.77 1880.68 3638.5 1965.83 3638.23 2050.99 3642 2106.51 3638.5 2148.51 3635 2190.5 3640.8 2283.47 3638.5 2354.5 3579.72 2364.62 3529.1 2346.64 3421.86 2354.5 3314.61 2362.36 3253.56 2346.21 3198.9 2354.5 3144.25 2362.79 3054.9 2363.71 3007.5 2354.5 3001.99 2287.67 3009.57 2240.92 3007.5 2166 3005.43 2091.07 3001.18 2067.08 3007.5 1971.66 3013.82 1876.25 3013.42 1818.54 3007.5 1771.5Z" stroke="#000000" stroke-width="20.625" stroke-miterlimit="8" fill="none" fill-rule="evenodd"/><path d="M1884.5 547.5C1994.82 544.611 2009.66 536.499 2107.81 547.5 2205.95 558.501 2259.44 540.151 2312.15 547.5 2364.87 554.849 2441.83 543.67 2516.5 547.5 2524.39 585.545 2509.33 640.25 2516.5 724.344 2523.67 808.437 2506.72 834.845 2516.5 930.337 2526.28 1025.83 2516.52 1067.59 2516.5 1130.5 2435.73 1124.68 2354.63 1119.9 2299.51 1130.5 2244.4 1141.1 2136.4 1138.85 2082.53 1130.5 2028.66 1122.15 1966.4 1138.45 1884.5 1130.5 1884.27 1072.64 1877.58 977.131 1884.5 936.167 1891.42 895.203 1891.8 815.94 1884.5 753.493 1877.2 691.047 1878 602.866 1884.5 547.5Z" fill="#4472C4" fill-rule="evenodd"/><path d="M1884.5 547.5C1934.9 556.738 1984.89 552.864 2082.53 547.5 2180.16 542.136 2214.34 545.444 2274.23 547.5 2334.13 549.557 2428.4 549.964 2516.5 547.5 2518.92 594.927 2516.19 648.973 2516.5 741.833 2516.81 834.694 2515.21 881.42 2516.5 930.337 2517.79 979.254 2520.25 1063.68 2516.5 1130.5 2457.05 1140.94 2405.53 1132.84 2299.51 1130.5 2193.5 1128.16 2152.82 1131.34 2107.81 1130.5 2062.79 1129.66 1977.72 1122.97 1884.5 1130.5 1884.02 1070.85 1878.83 1038.06 1884.5 953.657 1890.17 869.257 1877.89 803.499 1884.5 747.664 1891.11 691.828 1880.27 600.873 1884.5 547.5Z" stroke="#000000" stroke-width="20.625" stroke-miterlimit="8" fill="none" fill-rule="evenodd"/><path d="M1884.5 1422.5C1994.82 1419.61 2009.66 1411.5 2107.81 1422.5 2205.95 1433.5 2259.44 1415.15 2312.15 1422.5 2364.87 1429.85 2441.83 1418.67 2516.5 1422.5 2524.39 1460.55 2509.33 1515.25 2516.5 1599.34 2523.67 1683.44 2506.72 1709.84 2516.5 1805.34 2526.28 1900.83 2516.52 1942.59 2516.5 2005.5 2435.73 1999.68 2354.63 1994.9 2299.51 2005.5 2244.4 2016.1 2136.4 2013.85 2082.53 2005.5 2028.66 1997.15 1966.4 2013.45 1884.5 2005.5 1884.27 1947.64 1877.58 1852.13 1884.5 1811.17 1891.42 1770.2 1891.8 1690.94 1884.5 1628.49 1877.2 1566.05 1878 1477.87 1884.5 1422.5Z" fill="#4472C4" fill-rule="evenodd"/><path d="M1884.5 1422.5C1934.9 1431.74 1984.89 1427.86 2082.53 1422.5 2180.16 1417.14 2214.34 1420.44 2274.23 1422.5 2334.13 1424.56 2428.4 1424.96 2516.5 1422.5 2518.92 1469.93 2516.19 1523.97 2516.5 1616.83 2516.81 1709.69 2515.21 1756.42 2516.5 1805.34 2517.79 1854.25 2520.25 1938.68 2516.5 2005.5 2457.05 2015.94 2405.53 2007.84 2299.51 2005.5 2193.5 2003.16 2152.82 2006.34 2107.81 2005.5 2062.79 2004.66 1977.72 1997.97 1884.5 2005.5 1884.02 1945.85 1878.83 1913.06 1884.5 1828.66 1890.17 1744.26 1877.89 1678.5 1884.5 1622.66 1891.11 1566.83 1880.27 1475.87 1884.5 1422.5Z" stroke="#000000" stroke-width="20.625" stroke-miterlimit="8" fill="none" fill-rule="evenodd"/><path d="M0 0 490.802 348.099" stroke="#000000" stroke-width="20.625" stroke-linecap="square" stroke-miterlimit="8" stroke-dasharray="61.875 20.625" fill="none" fill-rule="evenodd" transform="matrix(1 0 0 -1 1393.5 2061.6)"/><g clip-path="url(#clip2)" filter="url(#fx0)" transform="matrix(2 0 0 2 -699 -530)"><g><path d="M1459.5-24.0322C1459.5-19.1025 1458.23-14.7891 1455.69-11.0918 1453.15-7.39453 1448.71-4.46753 1442.36-2.31079 1436.01-0.154053 1427.92 1.69458 1418.08 3.23511 1408.25 4.77563 1395.4 5.5459 1379.53 5.5459 1364.93 5.5459 1352.4 4.77563 1341.93 3.23511 1331.46 1.69458 1323.2-0.154053 1317.17-2.31079 1311.14-4.46753 1306.86-7.39453 1304.32-11.0918 1301.78-14.7891 1300.51-19.1025 1300.51-24.0322L1300.51-1065.74 1298.66-1065.74 877.176-19.4106C875.328-15.0972 872.709-11.3999 869.32-8.31885 865.93-5.23779 861.001-2.6189 854.53-0.462158 848.06 1.69458 840.358 3.23511 831.423 4.15942 822.487 5.08374 811.858 5.5459 799.534 5.5459 786.593 5.5459 775.501 4.92969 766.258 3.69727 757.015 2.46484 749.312 0.770264 743.15-1.38647 736.988-3.54321 732.213-6.16211 728.823-9.24316 725.434-12.3242 723.123-15.7134 721.891-19.4106L318.889-1065.74 317.965-1065.74 317.965-24.0322C317.965-19.1025 316.696-14.7891 314.159-11.0918 311.622-7.39453 307.179-4.46753 300.829-2.31079 294.479-0.154053 286.228 1.69458 276.075 3.23511 265.921 4.77563 252.911 5.5459 237.044 5.5459 221.812 5.5459 209.119 4.77563 198.966 3.23511 188.813 1.69458 180.721-0.154053 174.689-2.31079 168.656-4.46753 164.531-7.39453 162.311-11.0918 160.092-14.7891 158.982-19.1025 158.982-24.0322L158.982-1123.97C158.982-1149.85 165.864-1168.34 179.628-1179.43 193.392-1190.52 208.722-1196.07 225.62-1196.07L323.236-1196.07C343.254-1196.07 360.772-1194.22 375.792-1190.52 390.812-1186.82 403.953-1180.97 415.213-1172.96 426.473-1164.95 435.858-1154.78 443.369-1142.45 450.879-1130.13 457.45-1115.65 463.082-1099.01L805.08-232.928 809.701-232.928 1165.56-1096.24C1172.45-1114.73 1179.96-1130.44 1188.1-1143.38 1196.24-1156.32 1205.16-1166.64 1214.87-1174.34 1224.57-1182.05 1235.37-1187.59 1247.26-1190.98 1259.15-1194.37 1272.93-1196.07 1288.58-1196.07L1390.94-1196.07C1400.33-1196.07 1409.26-1194.68 1417.71-1191.91 1426.16-1189.13 1433.35-1184.82 1439.3-1178.97 1445.26-1173.11 1450.11-1165.72 1453.86-1156.78 1457.62-1147.85 1459.5-1136.91 1459.5-1123.97ZM2512.3-845.749C2512.3-785.977 2502.44-732.059 2482.73-683.994 2463.01-635.93 2434.81-594.952 2398.15-561.06 2361.49-527.168 2316.5-500.979 2263.2-482.493 2209.9-464.007 2146.27-454.764 2072.33-454.764L1936.45-454.764 1936.45-24.0322C1936.45-19.1025 1935.07-14.7891 1932.29-11.0918 1929.52-7.39453 1925.21-4.46753 1919.35-2.31079 1913.5-0.154053 1905.49 1.69458 1895.32 3.23511 1885.15 4.77563 1872.37 5.5459 1856.96 5.5459 1841.56 5.5459 1828.77 4.77563 1818.6 3.23511 1808.44 1.69458 1800.27-0.154053 1794.11-2.31079 1787.95-4.46753 1783.63-7.39453 1781.17-11.0918 1778.7-14.7891 1777.47-19.1025 1777.47-24.0322L1777.47-1127.67C1777.47-1152.31 1783.94-1169.88 1796.88-1180.35 1809.82-1190.83 1824.3-1196.07 1840.33-1196.07L2096.36-1196.07C2122.24-1196.07 2147.04-1194.99 2170.77-1192.83 2194.49-1190.67 2222.53-1186.05 2254.88-1178.97 2287.23-1171.88 2320.2-1158.63 2353.78-1139.22 2387.37-1119.81 2415.87-1095.93 2439.28-1067.59 2462.7-1039.24 2480.72-1006.43 2493.35-969.146 2505.99-931.865 2512.3-890.733 2512.3-845.749ZM2345-832.809C2345-881.49 2335.91-922.16 2317.73-954.819 2299.56-987.478 2277.06-1011.82 2250.26-1027.84 2223.45-1043.86 2195.73-1054.03 2167.07-1058.34 2138.42-1062.66 2110.53-1064.81 2083.42-1064.81L1936.45-1064.81 1936.45-585.092 2079.72-585.092C2127.79-585.092 2167.69-591.254 2199.42-603.579 2231.16-615.903 2257.81-633.003 2279.38-654.878 2300.94-676.754 2317.27-702.943 2328.36-733.445 2339.46-763.947 2345-797.069 2345-832.809ZM3397.84-335.527C3397.84-279.452 3387.52-229.539 3366.88-185.788 3346.23-142.037 3317.58-104.91 3280.91-74.4075 3244.25-43.905 3201.11-20.9512 3151.51-5.5459 3101.91 9.85937 3048.45 17.562 2991.14 17.562 2951.09 17.562 2913.96 14.1728 2879.76 7.39453 2845.56 0.616211 2815.06-7.70264 2788.25-17.562 2761.45-27.4214 2738.96-37.5889 2720.78-48.0644 2702.6-58.54 2689.97-67.4751 2682.88-74.8696 2675.8-82.2642 2670.56-91.6614 2667.17-103.061 2663.78-114.461 2662.08-129.712 2662.08-148.815 2662.08-162.372 2662.7-173.617 2663.93-182.552 2665.17-191.488 2667.01-198.728 2669.48-204.274 2671.94-209.82 2675.02-213.671 2678.72-215.828 2682.42-217.985 2686.73-219.063 2691.66-219.063 2700.29-219.063 2712.46-213.825 2728.17-203.35 2743.89-192.874 2764.07-181.474 2788.72-169.15 2813.36-156.826 2843.1-145.272 2877.91-134.488 2912.73-123.704 2952.94-118.312 2998.54-118.312 3033.04-118.312 3064.62-122.934 3093.28-132.177 3121.93-141.42 3146.58-154.515 3167.22-171.461 3187.87-188.406 3203.73-209.204 3214.83-233.852 3225.92-258.5 3231.46-286.538 3231.46-317.965 3231.46-351.856 3223.76-380.818 3208.36-404.851 3192.95-428.883 3172.62-449.988 3147.35-468.166 3122.09-486.344 3093.28-502.982 3060.93-518.079 3028.58-533.176 2995.45-548.582 2961.56-564.295 2927.67-580.008 2894.7-597.416 2862.66-616.519 2830.62-635.622 2801.96-658.113 2776.7-683.994 2751.44-709.875 2730.95-740.223 2715.23-775.039 2699.52-809.855 2691.66-851.603 2691.66-900.284 2691.66-950.197 2700.75-994.718 2718.93-1033.85 2737.11-1072.98 2762.37-1105.79 2794.72-1132.29 2827.08-1158.78 2865.59-1178.97 2910.26-1192.83 2954.94-1206.69 3003.16-1213.63 3054.92-1213.63 3081.42-1213.63 3108.07-1211.32 3134.87-1206.69 3161.68-1202.07 3186.94-1195.91 3210.67-1188.21 3234.39-1180.51 3255.5-1171.88 3273.98-1162.33 3292.47-1152.78 3304.64-1145.07 3310.49-1139.22 3316.35-1133.37 3320.2-1128.74 3322.05-1125.36 3323.9-1121.97 3325.44-1117.65 3326.67-1112.41 3327.9-1107.18 3328.82-1100.86 3329.44-1093.47 3330.06-1086.07 3330.37-1076.52 3330.37-1064.81 3330.37-1053.72 3329.9-1043.86 3328.98-1035.23 3328.05-1026.61 3326.67-1019.37 3324.82-1013.51 3322.97-1007.66 3320.35-1003.35 3316.96-1000.57 3313.57-997.799 3309.72-996.413 3305.41-996.413 3298.63-996.413 3288-1000.73 3273.52-1009.35 3259.04-1017.98 3241.32-1027.69 3220.37-1038.47 3199.42-1049.25 3174.62-1059.11 3145.96-1068.05 3117.31-1076.98 3085.11-1081.45 3049.37-1081.45 3016.1-1081.45 2987.14-1076.98 2962.49-1068.05 2937.84-1059.11 2917.5-1047.25 2901.48-1032.46 2885.46-1017.67 2873.44-1000.11 2865.43-979.775 2857.42-959.44 2853.42-937.873 2853.42-915.073 2853.42-881.798 2861.12-853.144 2876.53-829.112 2891.93-805.08 2912.42-783.82 2937.99-765.334 2963.57-746.848 2992.68-729.902 3025.34-714.497 3058-699.091 3091.28-683.532 3125.17-667.819 3159.06-652.105 3192.33-634.851 3224.99-616.057 3257.65-597.262 3286.77-575.079 3312.34-549.506 3337.91-523.933 3358.56-493.739 3374.27-458.923 3389.98-424.107 3397.84-382.975 3397.84-335.527Z" transform="matrix(0.5 0 0 0.5 590.528 1193)"/></g></g><text font-family="Calibri,Calibri_MSFontService,sans-serif" font-weight="400" font-size="1893" transform="matrix(1 0 0 1 466.927 1840)">MPS</text></g></svg>